<svg xmlns="http://www.w3.org/2000/svg" viewBox="0 0 512 512">
  <rect width="512" height="512" rx="112" fill="#2563eb"/>
  <path fill="#fff" d="M148 120h216c31 0 56 25 56 56v188c0 31-25 56-56 56H148c-31 0-56-25-56-56V176c0-31 25-56 56-56Z"/>
  <path fill="#bfdbfe" d="M92 188h328v56H92z"/>
  <path fill="#2563eb" d="M162 88c13 0 24 11 24 24v48c0 13-11 24-24 24s-24-11-24-24v-48c0-13 11-24 24-24Zm188 0c13 0 24 11 24 24v48c0 13-11 24-24 24s-24-11-24-24v-48c0-13 11-24 24-24ZM168 292h56v56h-56v-56Zm84 0h56v56h-56v-56Zm84 0h56v56h-56v-56Z"/>
  <path fill="#16a34a" d="m219 386-47-47 26-26 21 21 82-82 26 26-108 108Z"/>
</svg>
